<?xml version="1.0" encoding="utf-8"?>
<!-- Generator: Adobe Illustrator 24.3.0, SVG Export Plug-In . SVG Version: 6.00 Build 0)  -->
<svg version="1.2" baseProfile="tiny" id="Layer_1" xmlns="http://www.w3.org/2000/svg" xmlns:xlink="http://www.w3.org/1999/xlink"
	 x="0px" y="0px" viewBox="0 0 3061.42 3061.42" overflow="visible" xml:space="preserve">
<g>
	<path fill="#FFFFFF" d="M1582.99,2409.63c60.41-8.22,122.32-10.57,180.97-25.62c352.37-90.46,568.54-315.02,643.07-671.06
		c13.92-66.48,10.63-137.05,10.75-205.74c0.07-37.75-31.84-61.75-65.74-57.85c-35.03,4.04-54.6,32.55-54.11,70.09
		c0.66,49.92,1.92,100.51-4.88,149.74c-53.95,390.47-423.97,667-812.36,608.85c-328.7-49.21-577.47-306.53-614.09-635.2
		c-32.43-291.08,117.63-576.5,375.88-712.54c121.13-63.8,249.89-93.84,387.42-81.93c44.24,3.83,75.35-32.81,63.51-73.08
		c-8.34-28.37-31.47-47.37-65.52-47.34c-53.95,0.04-108.56-1.5-161.76,5.86c-469.43,64.96-791.16,504.79-712.06,971.13
		C822.69,2109.4,1173.13,2405.67,1582.99,2409.63z M1941.47,1008.05c0,29-1.15,58.05,0.41,86.97c1.02,19.03-5.87,31.82-19.1,44.95
		c-123.48,122.56-246.32,245.76-369.31,368.82c-6.64,6.64-13.5,13.2-19.23,20.59c-18.57,24.01-16.95,55.63,3.42,77.35
		c20.87,22.25,53.8,25.33,78.93,6.79c7.51-5.54,14.12-12.39,20.76-19.03c124.18-124.08,248.47-248.06,372.17-372.61
		c12.09-12.18,24.1-17.13,41.13-16.86c60.33,0.93,120.68,0.09,181.03,0.49c23.25,0.15,42.3-7.28,58.91-23.97
		c115.56-116.08,231.39-231.88,347.39-347.51c20.88-20.81,29.78-44.34,18.22-72.29c-11.33-27.4-34.25-36.51-62.64-36.24
		c-47.02,0.46-94.04,0.13-141.06,0.11c-31.01-0.01-31.02-0.03-31.04-29.83c-0.02-47.02-0.39-94.05,0.11-141.06
		c0.31-29.22-8.61-53.05-37.27-64.35c-28.09-11.08-51.3-1.47-72.07,19.4C2197.24,625.3,2082,740.59,1966.41,855.52
		c-17.35,17.25-25.45,36.73-25.05,60.84C1941.87,946.92,1941.48,977.49,1941.47,1008.05z M1581.46,2044.61
		c256.16,0.23,466.42-199.48,480.04-455.94c2.72-51.26-18.27-81.65-57.53-83.27c-38.22-1.58-60.85,25.9-63.05,76.55
		c-9.26,213.22-203.14,371.9-414.28,339.08c-156.37-24.31-283.98-154.13-301.37-306.58c-19.39-170.01,69.14-324.23,224.68-382.97
		c40.89-15.44,86.54-19.15,130.39-25.6c38.1-5.6,63.25-29.86,61.11-64.07c-2.11-33.72-28.34-57.5-65.52-56.38
		c-26.52,0.8-53.24,3.32-79.35,7.99c-244.15,43.64-413.6,265.24-393.06,513.19C1123.94,1853.19,1332.58,2044.38,1581.46,2044.61z"/>
	<path d="M1653.11,364.99c44.06,6.13,88.46,10.48,132.09,18.88c48.34,9.31,96.26,21.21,143.8,34.06
		c39.81,10.76,58.5,43.64,47.58,78.28c-10.39,32.93-43.57,48.38-82.41,36.49c-120.33-36.84-243.36-52.57-368.85-45.56
		c-287.24,16.04-532.51,126.62-731.7,334.17c-174.22,181.53-278.32,399.67-294.75,650.28
		c-29.77,453.86,152.52,804.68,543.56,1039.02c215.79,129.32,454.27,172.28,701.92,129.23c404.31-70.28,688.14-298.77,843.05-679.17
		c93.59-229.82,98.47-466.97,27.31-704.63c-16.1-53.78,19.57-89.71,56.59-87.9c26.82,1.31,47.24,16.28,56.28,45.18
		c26.51,84.76,43.08,171.49,50.07,260.06c0.79,10.01,2.87,19.92,4.35,29.88c0,43.9,0,87.8,0,131.7c-1.31,6.83-2.9,13.61-3.88,20.48
		c-8.02,55.71-13.15,112-24.3,167.07c-95.62,472.41-492.4,853.86-968.63,932.21c-43.85,7.21-88.03,12.4-132.06,18.52
		c-50.17,0-100.34,0-150.52,0c-5.19-1.3-10.32-3.06-15.59-3.84c-55.68-8.24-111.99-13.4-166.97-24.9
		c-471.64-98.69-848.44-492.22-927.81-967.92c-7.32-43.88-12.38-88.13-18.49-132.21c0-50.17,0-100.34,0-150.52
		c1.39-6.84,3.05-13.63,4.14-20.52c9.68-60.98,15.52-122.83,29.45-182.81c108.06-465.43,494.45-828.68,963.13-907.08
		c43.85-7.34,88.1-12.36,132.16-18.46C1552.77,364.99,1602.94,364.99,1653.11,364.99z"/>
	<path d="M1582.99,2409.63c-409.85-3.97-760.29-300.23-828.9-704.7c-79.11-466.34,242.63-906.17,712.06-971.13
		c53.19-7.36,107.8-5.82,161.76-5.86c34.05-0.03,57.18,18.97,65.52,47.34c11.84,40.27-19.26,76.91-63.51,73.08
		c-137.53-11.91-266.3,18.13-387.42,81.93c-258.26,136.03-408.32,421.46-375.88,712.54c36.62,328.67,285.39,585.99,614.09,635.2
		c388.39,58.15,758.41-218.38,812.36-608.85c6.8-49.23,5.54-99.82,4.88-149.74c-0.5-37.54,19.08-66.05,54.11-70.09
		c33.9-3.91,65.81,20.1,65.74,57.85c-0.12,68.69,3.16,139.26-10.75,205.74c-74.53,356.04-290.71,580.6-643.07,671.06
		C1705.31,2399.07,1643.39,2401.41,1582.99,2409.63z"/>
	<path d="M1941.48,1008.05c0-30.56,0.39-61.13-0.12-91.69c-0.4-24.11,7.7-43.6,25.05-60.84
		C2082,740.59,2197.24,625.3,2312.23,509.76c20.77-20.87,43.97-30.48,72.07-19.4c28.66,11.3,37.59,35.13,37.27,64.35
		c-0.5,47.02-0.14,94.04-0.11,141.06c0.01,29.81,0.03,29.82,31.04,29.83c47.02,0.02,94.05,0.35,141.06-0.11
		c28.39-0.28,51.31,8.84,62.64,36.24c11.56,27.95,2.66,51.48-18.22,72.29c-116,115.63-231.83,231.44-347.39,347.51
		c-16.62,16.69-35.66,24.12-58.91,23.97c-60.34-0.39-120.7,0.44-181.03-0.49c-17.03-0.26-29.04,4.68-41.13,16.86
		c-123.7,124.56-247.99,248.53-372.17,372.61c-6.64,6.63-13.24,13.48-20.76,19.03c-25.12,18.53-58.06,15.45-78.93-6.79
		c-20.37-21.71-21.99-53.34-3.42-77.35c5.72-7.4,12.59-13.95,19.23-20.59c122.99-123.06,245.83-246.26,369.31-368.82
		c13.23-13.13,20.12-25.92,19.1-44.95C1940.33,1066.11,1941.47,1037.05,1941.48,1008.05z M2301.97,695.25
		c-4.65,1.65-6.41,1.75-7.35,2.69c-74.93,74.69-149.84,149.4-224.54,224.32c-3.6,3.61-7.55,9.05-7.6,13.69
		c-0.55,49.08-0.34,98.17-0.34,149.07c47.3,0,91.85,0.89,136.32-0.63c10.99-0.38,24.3-5.97,32.15-13.66
		c69.97-68.56,138.97-138.11,208.17-207.45c4.59-4.6,8.46-9.92,12.65-14.89c-2.35-1.8-2.91-2.61-3.48-2.61
		c-26.63-0.26-53.27-0.28-79.9-0.69c-42.03-0.65-65.53-23.9-66.01-65.48C2301.71,752.27,2301.97,724.94,2301.97,695.25z"/>
	<path d="M1581.46,2044.61c-248.88-0.22-457.52-191.42-477.95-437.99c-20.54-247.95,148.91-469.56,393.06-513.19
		c26.11-4.67,52.83-7.19,79.35-7.99c37.18-1.12,63.42,22.66,65.52,56.38c2.14,34.21-23.01,58.47-61.11,64.07
		c-43.85,6.45-89.5,10.16-130.39,25.6c-155.54,58.74-244.07,212.96-224.68,382.97c17.39,152.45,145,282.27,301.37,306.58
		c211.14,32.82,405.02-125.86,414.28-339.08c2.2-50.65,24.84-78.13,63.05-76.55c39.26,1.62,60.25,32,57.53,83.27
		C2047.89,1845.13,1837.62,2044.84,1581.46,2044.61z"/>
	<path fill="#FFFFFF" d="M2301.97,695.25c0,29.69-0.26,57.02,0.06,84.34c0.48,41.58,23.98,64.83,66.01,65.48
		c26.63,0.41,53.27,0.43,79.9,0.69c0.57,0.01,1.13,0.81,3.48,2.61c-4.19,4.97-8.06,10.29-12.65,14.89
		c-69.2,69.34-138.2,138.89-208.17,207.45c-7.84,7.69-21.16,13.28-32.15,13.66c-44.47,1.53-89.02,0.63-136.32,0.63
		c0-50.9-0.21-99.99,0.34-149.07c0.05-4.63,4-10.08,7.6-13.69c74.7-74.92,149.61-149.63,224.54-224.32
		C2295.55,697.01,2297.32,696.9,2301.97,695.25z"/>
</g>
</svg>
