<svg width="1440" height="173" viewBox="0 0 1440 173" fill="none" xmlns="http://www.w3.org/2000/svg">
<path d="M723.5 48L0 0V125L720.5 173L1440 125V0L723.5 48Z" fill="#FC9FF8"/>
<path d="M562.21 109.439L558.951 106.293C560 104.95 560.833 103.481 561.449 101.886C562.066 100.29 562.431 98.6142 562.545 96.8579L562.551 96.7621C562.706 94.3671 562.404 92.1028 561.645 89.9692C560.919 87.8057 559.808 85.9058 558.31 84.2695C556.847 82.6034 555.059 81.2528 552.945 80.2179C550.834 79.1511 548.485 78.5338 545.898 78.3661C543.312 78.1984 540.887 78.5062 538.623 79.2894C536.394 80.0427 534.429 81.1659 532.729 82.6591C531.063 84.1223 529.714 85.8788 528.684 87.9284C527.655 89.946 527.063 92.1524 526.908 94.5473L526.901 94.6431C526.746 97.0381 527.031 99.3173 527.757 101.481C528.516 103.614 529.628 105.514 531.091 107.18C532.588 108.817 534.393 110.168 536.504 111.235C538.618 112.27 540.968 112.871 543.554 113.039C545.438 113.161 547.226 113.037 548.918 112.665C550.611 112.262 552.207 111.644 553.704 110.811L557.178 114.355L562.21 109.439ZM554.827 96.4537C554.715 98.1781 554.312 99.6912 553.619 100.993L548.433 95.6543L543.397 100.619L548.557 105.619C547.144 106.137 545.656 106.345 544.091 106.244C542.59 106.146 541.235 105.786 540.024 105.162C538.848 104.509 537.828 103.673 536.964 102.655C536.132 101.639 535.502 100.476 535.074 99.1654C534.678 97.857 534.526 96.4843 534.619 95.0473L534.626 94.9515C534.719 93.5145 535.045 92.1889 535.605 90.9746C536.199 89.7304 536.958 88.6572 537.882 87.7551C538.838 86.8551 539.941 86.173 541.189 85.7088C542.47 85.2467 543.861 85.0643 545.362 85.1616C546.831 85.2569 548.169 85.6322 549.377 86.2878C550.587 86.9114 551.608 87.7312 552.44 88.7471C553.304 89.7652 553.934 90.9284 554.331 92.2367C554.759 93.5472 554.926 94.9209 554.833 96.3579L554.827 96.4537ZM597.64 101.298L598.867 82.3776L591.491 81.8993L590.245 101.107C590.071 103.789 589.302 105.76 587.938 107.018C586.574 108.276 584.758 108.832 582.491 108.685C580.223 108.538 578.496 107.737 577.307 106.281C576.121 104.793 575.617 102.676 575.795 99.9296L577.025 80.9614L569.648 80.4832L568.406 99.6429C568.085 104.593 569.137 108.397 571.562 111.055C573.988 113.714 577.451 115.189 581.954 115.481C584.189 115.626 586.237 115.454 588.096 114.965C589.958 114.444 591.568 113.603 592.926 112.44C594.286 111.246 595.362 109.728 596.155 107.888C596.98 106.049 597.475 103.852 597.64 101.298ZM629.737 118.05L630.163 111.487L611.961 110.307L612.417 103.266L628.224 104.291L628.65 97.7286L612.843 96.7038L613.284 89.9021L631.246 91.0667L631.671 84.5044L606.381 82.8647L604.207 116.394L629.737 118.05ZM669.825 120.649L671.999 87.1191L664.048 86.6036L654.315 100.21L646.421 85.4607L638.469 84.9452L636.296 118.475L643.528 118.944L644.938 97.1974L653.359 111.981L653.551 111.994L663.916 98.2835L662.497 120.174L669.825 120.649Z" fill="black"/>
<path d="M800.226 109.059L800.22 108.963C800.123 107.495 799.8 106.249 799.251 105.227C798.735 104.203 797.988 103.338 797.012 102.633C796.065 101.894 794.903 101.297 793.526 100.843C792.179 100.355 790.644 99.9432 788.922 99.608C787.46 99.3198 786.241 99.0636 785.264 98.8395C784.319 98.6134 783.564 98.3585 783.001 98.0751C782.437 97.7917 782.03 97.4658 781.781 97.0974C781.562 96.6949 781.435 96.2223 781.399 95.6795L781.393 95.5837C781.338 94.7535 781.644 94.0438 782.31 93.4546C783.007 92.8313 784.073 92.4722 785.51 92.3772C786.947 92.2823 788.404 92.4907 789.881 93.0024C791.356 93.4822 792.877 94.1834 794.446 95.106L797.91 89.2969C796.095 88.0379 794.126 87.1097 792.002 86.5124C789.91 85.9131 787.634 85.6946 785.176 85.8571C783.451 85.971 781.887 86.315 780.481 86.8889C779.076 87.4628 777.876 88.2316 776.882 89.1952C775.919 90.1568 775.191 91.2792 774.699 92.5625C774.204 93.8138 774.008 95.2058 774.109 96.7385L774.115 96.8343C774.225 98.4947 774.572 99.8667 775.157 100.951C775.774 102.032 776.586 102.925 777.595 103.628C778.601 104.299 779.808 104.844 781.215 105.265C782.621 105.685 784.185 106.046 785.904 106.35C787.333 106.608 788.488 106.868 789.371 107.131C790.287 107.391 790.994 107.665 791.494 107.953C792.026 108.238 792.385 108.567 792.57 108.94C792.785 109.278 792.908 109.687 792.939 110.166L792.946 110.262C793.011 111.252 792.632 112.063 791.808 112.694C791.013 113.292 789.85 113.641 788.317 113.743C786.401 113.869 784.605 113.619 782.928 112.992C781.283 112.363 779.653 111.477 778.038 110.333L774.024 115.842C776.156 117.529 778.481 118.738 780.999 119.47C783.514 120.169 786.049 120.435 788.604 120.266C790.424 120.146 792.07 119.812 793.541 119.266C795.01 118.688 796.259 117.932 797.287 116.998C798.314 116.032 799.088 114.891 799.611 113.574C800.131 112.224 800.336 110.72 800.226 109.059ZM840.324 99.5305L840.318 99.4348C840.16 97.04 839.565 94.8344 838.534 92.818C837.532 90.7676 836.183 89.0288 834.485 87.6016C832.817 86.1404 830.868 85.0345 828.638 84.2839C826.405 83.5014 823.996 83.1956 821.409 83.3666C818.823 83.5375 816.459 84.1587 814.317 85.2303C812.205 86.2678 810.403 87.6376 808.912 89.3396C807.451 91.0076 806.343 92.9248 805.588 95.0913C804.831 97.2258 804.532 99.4905 804.69 101.885L804.696 101.981C804.855 104.376 805.434 106.598 806.436 108.649C807.467 110.665 808.817 112.404 810.485 113.865C812.182 115.292 814.148 116.397 816.38 117.18C818.61 117.93 821.019 118.22 823.605 118.049C826.191 117.878 828.541 117.274 830.653 116.237C832.795 115.165 834.596 113.795 836.058 112.127C837.549 110.425 838.673 108.507 839.43 106.372C840.184 104.206 840.483 101.925 840.324 99.5305ZM832.62 100.136C832.714 101.573 832.549 102.947 832.122 104.258C831.726 105.535 831.112 106.682 830.281 107.699C829.482 108.713 828.478 109.533 827.269 110.159C826.059 110.784 824.72 111.145 823.251 111.242C821.751 111.341 820.36 111.16 819.079 110.7C817.827 110.205 816.707 109.51 815.718 108.613C814.76 107.714 813.984 106.643 813.389 105.399C812.825 104.154 812.496 102.813 812.401 101.376L812.395 101.28C812.3 99.8431 812.451 98.4862 812.847 97.2092C813.274 95.8982 813.887 94.7353 814.685 93.7204C815.516 92.7035 816.52 91.8835 817.698 91.2605C818.907 90.6354 820.262 90.2732 821.763 90.1741C823.232 90.077 824.608 90.2747 825.891 90.7672C827.172 91.2277 828.292 91.9074 829.249 92.8062C830.238 93.7029 831.014 94.7741 831.578 96.0196C832.173 97.2631 832.518 98.6032 832.613 100.04L832.62 100.136ZM881.502 113.646L879.286 80.1193L871.336 80.6447L863.46 95.4041L853.71 81.8094L845.76 82.3347L847.975 115.862L855.207 115.384L853.77 93.6391L864.047 107.199L864.238 107.186L872.728 92.2421L874.174 114.13L881.502 113.646ZM922.598 94.0939L922.592 93.9981C922.433 91.6033 921.839 89.3977 920.808 87.3813C919.806 85.3309 918.457 83.5921 916.759 82.1649C915.091 80.7037 913.142 79.5978 910.911 78.8473C908.679 78.0648 906.269 77.759 903.683 77.9299C901.097 78.1008 898.733 78.722 896.591 79.7936C894.478 80.8311 892.677 82.2009 891.186 83.9029C889.725 85.5709 888.617 87.4881 887.862 89.6546C887.105 91.7892 886.806 94.0538 886.964 96.4486L886.97 96.5444C887.128 98.9392 887.708 101.162 888.71 103.212C889.741 105.229 891.09 106.967 892.758 108.429C894.456 109.856 896.421 110.961 898.654 111.743C900.884 112.494 903.292 112.783 905.879 112.613C908.465 112.442 910.814 111.837 912.927 110.8C915.069 109.728 916.87 108.359 918.331 106.691C919.822 104.989 920.946 103.07 921.703 100.936C922.458 98.7693 922.756 96.4886 922.598 94.0939ZM914.893 94.6992C914.988 96.1361 914.822 97.51 914.396 98.821C913.999 100.098 913.386 101.245 912.555 102.262C911.756 103.277 910.752 104.097 909.542 104.722C908.333 105.347 906.994 105.708 905.525 105.805C904.024 105.904 902.633 105.724 901.352 105.263C900.101 104.768 898.981 104.073 897.991 103.176C897.034 102.277 896.258 101.206 895.662 99.9627C895.099 98.7171 894.77 97.3759 894.675 95.939L894.669 95.8432C894.574 94.4064 894.725 93.0495 895.121 91.7725C895.548 90.4616 896.16 89.2986 896.959 88.2838C897.79 87.2668 898.794 86.4468 899.972 85.8238C901.181 85.1987 902.536 84.8365 904.037 84.7374C905.506 84.6403 906.882 84.838 908.165 85.3305C909.446 85.791 910.565 86.4707 911.523 87.3695C912.512 88.2662 913.288 89.3374 913.852 90.5829C914.447 91.8264 914.792 93.1666 914.887 94.6034L914.893 94.6992ZM953.829 98.9091L953.822 98.8133C953.725 97.3445 953.403 96.0991 952.854 95.077C952.337 94.0529 951.591 93.1882 950.614 92.4831C949.667 91.7439 948.505 91.1472 947.128 90.693C945.781 90.2048 944.247 89.7931 942.525 89.4579C941.063 89.1696 939.843 88.9135 938.866 88.6894C937.921 88.4632 937.167 88.2084 936.603 87.925C936.039 87.6416 935.633 87.3157 935.384 86.9473C935.165 86.5448 935.037 86.0722 935.002 85.5294L934.995 85.4336C934.94 84.6034 935.246 83.8937 935.913 83.3045C936.609 82.6812 937.676 82.3221 939.113 82.2271C940.55 82.1322 942.007 82.3406 943.484 82.8523C944.958 83.3321 946.48 84.0333 948.048 84.9559L951.513 79.1468C949.698 77.8877 947.728 76.9596 945.604 76.3623C943.512 75.763 941.237 75.5445 938.778 75.707C937.054 75.8209 935.489 76.1649 934.084 76.7388C932.679 77.3127 931.479 78.0815 930.484 79.0451C929.522 80.0067 928.794 81.1291 928.301 82.4124C927.807 83.6637 927.61 85.0557 927.712 86.5884L927.718 86.6842C927.828 88.3445 928.175 89.7166 928.76 90.8004C929.376 91.8821 930.189 92.7745 931.197 93.4775C932.204 94.1486 933.41 94.6942 934.817 95.1144C936.224 95.5346 937.787 95.8963 939.507 96.1995C940.935 96.4579 942.091 96.7183 942.974 96.9806C943.889 97.2409 944.597 97.5148 945.097 97.8024C945.629 98.088 945.987 98.4171 946.172 98.7897C946.387 99.1283 946.51 99.537 946.542 100.016L946.548 100.112C946.614 101.102 946.234 101.912 945.41 102.544C944.616 103.142 943.452 103.491 941.92 103.593C940.004 103.719 938.207 103.469 936.53 102.842C934.885 102.213 933.255 101.327 931.64 100.183L927.627 105.692C929.759 107.379 932.084 108.588 934.601 109.32C937.117 110.019 939.652 110.285 942.206 110.116C944.026 109.996 945.672 109.662 947.143 109.116C948.612 108.538 949.861 107.782 950.89 106.848C951.916 105.882 952.691 104.741 953.213 103.424C953.733 102.074 953.938 100.569 953.829 98.9091Z" fill="black"/>
</svg>
