<svg width="1440" height="173" viewBox="0 0 1440 173" fill="none" xmlns="http://www.w3.org/2000/svg">
<path d="M723.5 48L0 0V125L720.5 173L1440 125V0L723.5 48Z" fill="#FC9FF8"/>
<path d="M625.813 123.118L611.413 89.2782H604.597L590.197 123.118H597.733L600.805 115.582H615.013L618.085 123.118H625.813ZM612.373 109.054H603.445L607.909 98.1582L612.373 109.054ZM659.559 113.902V113.806C659.559 111.566 658.999 109.822 657.879 108.574C656.759 107.294 655.223 106.286 653.271 105.55C653.879 105.23 654.439 104.846 654.951 104.398C655.495 103.95 655.959 103.438 656.343 102.862C656.759 102.254 657.079 101.582 657.303 100.846C657.559 100.11 657.687 99.2622 657.687 98.3022V98.2062C657.687 95.5502 656.695 93.4382 654.711 91.8702C652.759 90.3022 650.055 89.5182 646.599 89.5182H630.999V123.118H646.983C648.871 123.118 650.583 122.926 652.119 122.542C653.687 122.158 655.015 121.582 656.103 120.814C657.223 120.046 658.071 119.086 658.647 117.934C659.255 116.782 659.559 115.438 659.559 113.902ZM650.343 99.5502C650.343 100.798 649.863 101.71 648.903 102.286C647.943 102.83 646.647 103.102 645.015 103.102H638.199V95.9982H645.495C647.063 95.9982 648.263 96.3022 649.095 96.9102C649.927 97.4862 650.343 98.3342 650.343 99.4542V99.5502ZM652.215 112.99C652.215 114.238 651.751 115.166 650.823 115.774C649.895 116.35 648.615 116.638 646.983 116.638H638.199V109.246H646.743C648.663 109.246 650.055 109.582 650.919 110.254C651.783 110.894 652.215 111.774 652.215 112.894V112.99ZM699.863 106.318V106.222C699.863 103.822 699.415 101.582 698.519 99.5022C697.655 97.3902 696.423 95.5662 694.823 94.0302C693.255 92.4622 691.383 91.2302 689.207 90.3342C687.031 89.4062 684.647 88.9422 682.055 88.9422C679.463 88.9422 677.063 89.4062 674.855 90.3342C672.679 91.2302 670.791 92.4782 669.191 94.0782C667.623 95.6462 666.391 97.4862 665.495 99.5982C664.599 101.678 664.151 103.918 664.151 106.318V106.414C664.151 108.814 664.583 111.07 665.447 113.182C666.343 115.262 667.575 117.086 669.143 118.654C670.743 120.19 672.631 121.422 674.807 122.35C676.983 123.246 679.367 123.694 681.959 123.694C684.551 123.694 686.935 123.246 689.111 122.35C691.319 121.422 693.207 120.174 694.775 118.606C696.375 117.006 697.623 115.166 698.519 113.086C699.415 110.974 699.863 108.718 699.863 106.318ZM692.135 106.414C692.135 107.854 691.879 109.214 691.367 110.494C690.887 111.742 690.199 112.846 689.303 113.806C688.439 114.766 687.383 115.518 686.135 116.062C684.887 116.606 683.527 116.878 682.055 116.878C680.551 116.878 679.175 116.606 677.927 116.062C676.711 115.486 675.639 114.718 674.711 113.758C673.815 112.798 673.111 111.678 672.599 110.398C672.119 109.118 671.879 107.758 671.879 106.318V106.222C671.879 104.782 672.119 103.438 672.599 102.19C673.111 100.91 673.799 99.7902 674.663 98.8302C675.559 97.8702 676.615 97.1182 677.831 96.5742C679.079 96.0302 680.455 95.7582 681.959 95.7582C683.431 95.7582 684.791 96.0462 686.039 96.6222C687.287 97.1662 688.359 97.9182 689.255 98.8782C690.183 99.8382 690.887 100.958 691.367 102.238C691.879 103.518 692.135 104.878 692.135 106.318V106.414ZM735.173 108.478V89.5182H727.781V108.766C727.781 111.454 727.141 113.47 725.861 114.814C724.581 116.158 722.805 116.83 720.533 116.83C718.261 116.83 716.485 116.142 715.205 114.766C713.925 113.358 713.285 111.278 713.285 108.526V89.5182H705.893V108.718C705.893 113.678 707.189 117.406 709.781 119.902C712.373 122.398 715.925 123.646 720.437 123.646C722.677 123.646 724.709 123.342 726.533 122.734C728.357 122.094 729.909 121.15 731.189 119.902C732.469 118.622 733.445 117.038 734.117 115.15C734.821 113.262 735.173 111.038 735.173 108.478ZM768.142 96.3342V89.5182H740.302V96.3342H750.526V123.118H757.918V96.3342H768.142ZM816.969 108.478V89.5182H809.577V108.766C809.577 111.454 808.937 113.47 807.657 114.814C806.377 116.158 804.601 116.83 802.329 116.83C800.057 116.83 798.281 116.142 797.001 114.766C795.721 113.358 795.081 111.278 795.081 108.526V89.5182H787.689V108.718C787.689 113.678 788.985 117.406 791.577 119.902C794.169 122.398 797.721 123.646 802.233 123.646C804.473 123.646 806.505 123.342 808.329 122.734C810.153 122.094 811.705 121.15 812.985 119.902C814.265 118.622 815.241 117.038 815.913 115.15C816.617 113.262 816.969 111.038 816.969 108.478ZM848.787 113.182V113.086C848.787 111.614 848.547 110.35 848.067 109.294C847.619 108.238 846.931 107.326 846.003 106.558C845.107 105.758 843.987 105.086 842.643 104.542C841.331 103.966 839.827 103.454 838.131 103.006C836.691 102.622 835.491 102.286 834.531 101.998C833.603 101.71 832.867 101.406 832.323 101.086C831.779 100.766 831.395 100.414 831.171 100.03C830.979 99.6142 830.883 99.1342 830.883 98.5902V98.4942C830.883 97.6622 831.235 96.9742 831.939 96.4302C832.675 95.8542 833.763 95.5662 835.203 95.5662C836.643 95.5662 838.083 95.8702 839.523 96.4782C840.963 97.0542 842.435 97.8542 843.939 98.8782L847.779 93.3102C846.051 91.9342 844.147 90.8782 842.067 90.1422C840.019 89.4062 837.763 89.0382 835.299 89.0382C833.571 89.0382 831.987 89.2782 830.547 89.7582C829.107 90.2382 827.859 90.9262 826.803 91.8222C825.779 92.7182 824.979 93.7902 824.403 95.0382C823.827 96.2542 823.539 97.6302 823.539 99.1662V99.2622C823.539 100.926 823.795 102.318 824.307 103.438C824.851 104.558 825.603 105.502 826.563 106.27C827.523 107.006 828.691 107.63 830.067 108.142C831.443 108.654 832.979 109.118 834.675 109.534C836.083 109.886 837.219 110.222 838.083 110.542C838.979 110.862 839.667 111.182 840.147 111.502C840.659 111.822 840.995 112.174 841.155 112.558C841.347 112.91 841.443 113.326 841.443 113.806V113.902C841.443 114.894 841.011 115.678 840.147 116.254C839.315 116.798 838.131 117.07 836.595 117.07C834.675 117.07 832.899 116.702 831.267 115.966C829.667 115.23 828.099 114.238 826.563 112.99L822.195 118.222C824.211 120.046 826.451 121.406 828.915 122.302C831.379 123.166 833.891 123.598 836.451 123.598C838.275 123.598 839.939 123.374 841.443 122.926C842.947 122.446 844.243 121.774 845.331 120.91C846.419 120.014 847.267 118.926 847.875 117.646C848.483 116.334 848.787 114.846 848.787 113.182Z" fill="black"/>
</svg>
