<svg width="1440" height="173" viewBox="0 0 1440 173" fill="none" xmlns="http://www.w3.org/2000/svg">
<path d="M723.5 48L0 0V125L720.5 173L1440 125V0L723.5 48Z" fill="#E95324"/>
<path d="M676.568 122V88.4H669.272V109.088L653.528 88.4H646.712V122H654.008V100.64L670.28 122H676.568ZM710.218 122V115.424H691.978V108.368H707.818V101.792H691.978V94.976H709.978V88.4H684.634V122H710.218ZM765.174 88.4H757.446L750.486 111.152L742.95 88.304H736.614L729.078 111.152L722.118 88.4H714.198L725.67 122.24H732.102L739.686 100.256L747.27 122.24H753.702L765.174 88.4ZM794.937 112.064V111.968C794.937 110.496 794.697 109.232 794.217 108.176C793.769 107.12 793.081 106.208 792.153 105.44C791.257 104.64 790.137 103.968 788.793 103.424C787.481 102.848 785.977 102.336 784.281 101.888C782.841 101.504 781.641 101.168 780.681 100.88C779.753 100.592 779.017 100.288 778.473 99.968C777.929 99.648 777.545 99.296 777.321 98.912C777.129 98.496 777.033 98.016 777.033 97.472V97.376C777.033 96.544 777.385 95.856 778.089 95.312C778.825 94.736 779.913 94.448 781.353 94.448C782.793 94.448 784.233 94.752 785.673 95.36C787.113 95.936 788.585 96.736 790.089 97.76L793.929 92.192C792.201 90.816 790.297 89.76 788.217 89.024C786.169 88.288 783.913 87.92 781.449 87.92C779.721 87.92 778.137 88.16 776.697 88.64C775.257 89.12 774.009 89.808 772.953 90.704C771.929 91.6 771.129 92.672 770.553 93.92C769.977 95.136 769.689 96.512 769.689 98.048V98.144C769.689 99.808 769.945 101.2 770.457 102.32C771.001 103.44 771.753 104.384 772.713 105.152C773.673 105.888 774.841 106.512 776.217 107.024C777.593 107.536 779.129 108 780.825 108.416C782.233 108.768 783.369 109.104 784.233 109.424C785.129 109.744 785.817 110.064 786.297 110.384C786.809 110.704 787.145 111.056 787.305 111.44C787.497 111.792 787.593 112.208 787.593 112.688V112.784C787.593 113.776 787.161 114.56 786.297 115.136C785.465 115.68 784.281 115.952 782.745 115.952C780.825 115.952 779.049 115.584 777.417 114.848C775.817 114.112 774.249 113.12 772.713 111.872L768.345 117.104C770.361 118.928 772.601 120.288 775.065 121.184C777.529 122.048 780.041 122.48 782.601 122.48C784.425 122.48 786.089 122.256 787.593 121.808C789.097 121.328 790.393 120.656 791.481 119.792C792.569 118.896 793.417 117.808 794.025 116.528C794.633 115.216 794.937 113.728 794.937 112.064Z" fill="white"/>
</svg>
