<svg width="1440" height="173" viewBox="0 0 1440 173" fill="none" xmlns="http://www.w3.org/2000/svg">
<path d="M723.5 48L0 0V125L720.5 173L1440 125V0L723.5 48Z" fill="#E95324"/>
<path d="M630.818 122V88.4H623.522V109.088L607.778 88.4H600.962V122H608.258V100.64L624.53 122H630.818ZM673.108 105.2V105.104C673.108 102.704 672.66 100.464 671.764 98.384C670.9 96.272 669.668 94.448 668.068 92.912C666.5 91.344 664.628 90.112 662.452 89.216C660.276 88.288 657.892 87.824 655.3 87.824C652.708 87.824 650.308 88.288 648.1 89.216C645.924 90.112 644.036 91.36 642.436 92.96C640.868 94.528 639.636 96.368 638.74 98.48C637.844 100.56 637.396 102.8 637.396 105.2V105.296C637.396 107.696 637.828 109.952 638.692 112.064C639.588 114.144 640.82 115.968 642.388 117.536C643.988 119.072 645.876 120.304 648.052 121.232C650.228 122.128 652.612 122.576 655.204 122.576C657.796 122.576 660.18 122.128 662.356 121.232C664.564 120.304 666.452 119.056 668.02 117.488C669.62 115.888 670.868 114.048 671.764 111.968C672.66 109.856 673.108 107.6 673.108 105.2ZM665.38 105.296C665.38 106.736 665.124 108.096 664.612 109.376C664.132 110.624 663.444 111.728 662.548 112.688C661.684 113.648 660.628 114.4 659.38 114.944C658.132 115.488 656.772 115.76 655.3 115.76C653.796 115.76 652.42 115.488 651.172 114.944C649.956 114.368 648.884 113.6 647.956 112.64C647.06 111.68 646.356 110.56 645.844 109.28C645.364 108 645.124 106.64 645.124 105.2V105.104C645.124 103.664 645.364 102.32 645.844 101.072C646.356 99.792 647.044 98.672 647.908 97.712C648.804 96.752 649.86 96 651.076 95.456C652.324 94.912 653.7 94.64 655.204 94.64C656.676 94.64 658.036 94.928 659.284 95.504C660.532 96.048 661.604 96.8 662.5 97.76C663.428 98.72 664.132 99.84 664.612 101.12C665.124 102.4 665.38 103.76 665.38 105.2V105.296ZM705.105 95.216V88.4H677.265V95.216H687.489V122H694.881V95.216H705.105ZM718.518 122V88.4H711.126V122H718.518ZM717.366 85.76L723.51 80L717.222 77.264L711.798 85.76H717.366ZM756.435 116.576L751.731 111.824C750.419 113.04 749.091 114 747.747 114.704C746.435 115.408 744.819 115.76 742.899 115.76C741.459 115.76 740.131 115.488 738.915 114.944C737.731 114.368 736.707 113.6 735.843 112.64C735.011 111.68 734.355 110.56 733.875 109.28C733.395 108 733.155 106.64 733.155 105.2V105.104C733.155 103.664 733.395 102.32 733.875 101.072C734.355 99.792 735.027 98.672 735.891 97.712C736.755 96.752 737.779 96 738.963 95.456C740.179 94.912 741.491 94.64 742.899 94.64C744.595 94.64 746.115 94.976 747.459 95.648C748.835 96.32 750.179 97.248 751.491 98.432L756.195 93.008C755.427 92.24 754.595 91.536 753.699 90.896C752.803 90.256 751.827 89.712 750.771 89.264C749.715 88.816 748.531 88.464 747.219 88.208C745.939 87.952 744.515 87.824 742.947 87.824C740.355 87.824 737.987 88.288 735.843 89.216C733.699 90.112 731.859 91.36 730.323 92.96C728.787 94.528 727.587 96.368 726.723 98.48C725.859 100.56 725.427 102.8 725.427 105.2V105.296C725.427 107.696 725.859 109.952 726.723 112.064C727.587 114.176 728.787 116.016 730.323 117.584C731.859 119.12 733.683 120.336 735.795 121.232C737.907 122.128 740.195 122.576 742.659 122.576C744.291 122.576 745.763 122.432 747.075 122.144C748.387 121.888 749.587 121.504 750.675 120.992C751.795 120.448 752.819 119.808 753.747 119.072C754.675 118.336 755.571 117.504 756.435 116.576ZM770.08 122V88.4H762.688V122H770.08ZM811.213 122L796.813 88.16H789.997L775.597 122H783.133L786.205 114.464H800.413L803.485 122H811.213ZM797.773 107.936H788.845L793.309 97.04L797.773 107.936ZM840.687 112.064V111.968C840.687 110.496 840.447 109.232 839.967 108.176C839.519 107.12 838.831 106.208 837.903 105.44C837.007 104.64 835.887 103.968 834.543 103.424C833.231 102.848 831.727 102.336 830.031 101.888C828.591 101.504 827.391 101.168 826.431 100.88C825.503 100.592 824.767 100.288 824.223 99.968C823.679 99.648 823.295 99.296 823.071 98.912C822.879 98.496 822.783 98.016 822.783 97.472V97.376C822.783 96.544 823.135 95.856 823.839 95.312C824.575 94.736 825.663 94.448 827.103 94.448C828.543 94.448 829.983 94.752 831.423 95.36C832.863 95.936 834.335 96.736 835.839 97.76L839.679 92.192C837.951 90.816 836.047 89.76 833.967 89.024C831.919 88.288 829.663 87.92 827.199 87.92C825.471 87.92 823.887 88.16 822.447 88.64C821.007 89.12 819.759 89.808 818.703 90.704C817.679 91.6 816.879 92.672 816.303 93.92C815.727 95.136 815.439 96.512 815.439 98.048V98.144C815.439 99.808 815.695 101.2 816.207 102.32C816.751 103.44 817.503 104.384 818.463 105.152C819.423 105.888 820.591 106.512 821.967 107.024C823.343 107.536 824.879 108 826.575 108.416C827.983 108.768 829.119 109.104 829.983 109.424C830.879 109.744 831.567 110.064 832.047 110.384C832.559 110.704 832.895 111.056 833.055 111.44C833.247 111.792 833.343 112.208 833.343 112.688V112.784C833.343 113.776 832.911 114.56 832.047 115.136C831.215 115.68 830.031 115.952 828.495 115.952C826.575 115.952 824.799 115.584 823.167 114.848C821.567 114.112 819.999 113.12 818.463 111.872L814.095 117.104C816.111 118.928 818.351 120.288 820.815 121.184C823.279 122.048 825.791 122.48 828.351 122.48C830.175 122.48 831.839 122.256 833.343 121.808C834.847 121.328 836.143 120.656 837.231 119.792C838.319 118.896 839.167 117.808 839.775 116.528C840.383 115.216 840.687 113.728 840.687 112.064Z" fill="white"/>
</svg>
