<svg width="1440" height="173" viewBox="0 0 1440 173" fill="none" xmlns="http://www.w3.org/2000/svg">
<path d="M723.5 48L0 0V125L720.5 173L1440 125V0L723.5 48Z" fill="#8AD0EC"/>
<path d="M402.725 106.886L403.154 100.324L384.953 99.135L385.413 92.0941L401.219 93.1269L401.648 86.5649L385.842 85.532L386.286 78.7306L404.248 79.9042L404.677 73.3422L379.387 71.6897L377.196 105.218L402.725 106.886ZM433.376 108.889L433.814 102.183L417.098 101.091L418.851 74.2683L411.474 73.7864L409.284 107.315L433.376 108.889ZM464.469 110.921L464.898 104.359L446.696 103.169L447.156 96.1285L462.963 97.1613L463.391 90.5993L447.585 89.5665L448.03 82.765L465.991 83.9386L466.42 77.3766L441.13 75.7241L438.939 109.253L464.469 110.921ZM500.838 107.862L496.454 102.813C495.065 103.941 493.677 104.812 492.29 105.427C490.935 106.044 489.3 106.29 487.384 106.165C485.947 106.071 484.639 105.713 483.462 105.091C482.318 104.439 481.346 103.606 480.546 102.591C479.779 101.579 479.197 100.419 478.802 99.1102C478.406 97.8016 478.255 96.4288 478.349 94.9919L478.355 94.8961C478.449 93.4592 478.776 92.1337 479.337 90.9196C479.899 89.6736 480.643 88.5998 481.568 87.6982C482.492 86.7966 483.563 86.113 484.78 85.6473C486.029 85.1838 487.356 84.9979 488.761 85.0897C490.453 85.2003 491.948 85.6347 493.246 86.3929C494.575 87.1532 495.855 88.1668 497.087 89.4338L502.135 84.3281C501.419 83.5117 500.634 82.7549 499.782 82.0578C498.93 81.3608 497.991 80.7543 496.967 80.2384C495.942 79.7225 494.784 79.2941 493.491 78.9531C492.231 78.6141 490.818 78.3936 489.253 78.2913C486.667 78.1223 484.274 78.4309 482.074 79.2172C479.876 79.9715 477.958 81.0968 476.321 82.5933C474.686 84.0578 473.369 85.8156 472.369 87.8668C471.371 89.886 470.794 92.0931 470.638 94.488L470.631 94.5838C470.475 96.9787 470.759 99.2581 471.483 101.422C472.208 103.586 473.285 105.5 474.716 107.165C476.148 108.798 477.889 110.13 479.938 111.162C481.987 112.194 484.241 112.79 486.7 112.951C488.328 113.057 489.807 113.009 491.135 112.807C492.461 112.638 493.683 112.333 494.802 111.893C495.955 111.423 497.019 110.851 497.993 110.177C498.967 109.503 499.915 108.731 500.838 107.862ZM533.521 88.5916L533.966 81.7901L506.185 79.9749L505.741 86.7764L515.943 87.443L514.196 114.17L521.573 114.652L523.319 87.925L533.521 88.5916ZM572.694 101.157L572.701 101.061C572.857 98.6659 572.556 96.4014 571.798 94.2674C571.073 92.1036 569.963 90.2031 568.466 88.5661C567.004 86.8992 565.216 85.5477 563.103 84.5118C560.992 83.4439 558.644 82.8254 556.057 82.6564C553.471 82.4874 551.046 82.7939 548.782 83.576C546.552 84.3282 544.587 85.4504 542.886 86.9427C541.219 88.4051 539.87 90.1609 538.838 92.21C537.808 94.2271 537.215 96.4332 537.058 98.828L537.052 98.9238C536.896 101.319 537.18 103.598 537.904 105.762C538.663 107.896 539.773 109.796 541.235 111.463C542.732 113.1 544.536 114.453 546.646 115.521C548.759 116.557 551.109 117.159 553.696 117.328C556.282 117.497 558.69 117.206 560.92 116.453C563.184 115.671 565.149 114.549 566.816 113.087C568.517 111.594 569.882 109.84 570.912 107.823C571.944 105.773 572.538 103.551 572.694 101.157ZM564.977 100.748C564.883 102.185 564.539 103.526 563.944 104.77C563.384 105.984 562.625 107.041 561.669 107.94C560.744 108.842 559.641 109.523 558.36 109.985C557.08 110.446 555.705 110.629 554.236 110.533C552.735 110.435 551.38 110.074 550.17 109.45C548.994 108.795 547.974 107.959 547.111 106.941C546.279 105.924 545.65 104.761 545.222 103.45C544.827 102.142 544.676 100.769 544.77 99.3319L544.776 99.2361C544.87 97.7992 545.197 96.4737 545.758 95.2597C546.352 94.0158 547.112 92.943 548.036 92.0414C548.993 91.1419 550.096 90.4603 551.345 89.9967C552.625 89.5353 554.016 89.3536 555.517 89.4516C556.986 89.5476 558.324 89.9237 559.532 90.5798C560.742 91.204 561.763 92.0243 562.594 93.0407C563.458 94.0592 564.087 95.2227 564.483 96.5313C564.91 97.8419 565.077 99.2157 564.983 100.653L564.977 100.748ZM607.121 120.242L599.712 107.732C601.904 107.074 603.71 105.941 605.13 104.334C606.583 102.697 607.399 100.522 607.576 97.8078L607.583 97.712C607.81 94.2314 606.87 91.4442 604.762 89.3503C602.686 87.2585 599.652 86.0822 595.66 85.8214L580.333 84.8199L578.142 118.348L585.519 118.83L586.22 108.101L592.015 108.48L598.499 119.678L607.121 120.242ZM600.079 97.7028C599.985 99.1397 599.415 100.257 598.369 101.054C597.355 101.854 595.938 102.194 594.117 102.075L586.645 101.587L587.274 91.9596L594.603 92.4385C596.423 92.5574 597.818 93.0494 598.787 93.9145C599.757 94.7795 600.19 96.0104 600.085 97.607L600.079 97.7028ZM645.422 122.745L633.259 88.0376L626.458 87.5932L609.882 120.422L617.402 120.914L620.959 113.594L635.137 114.52L637.711 122.241L645.422 122.745ZM632.928 107.834L624.019 107.252L629.184 96.6703L632.928 107.834ZM674.69 124.657L675.128 117.951L658.412 116.859L660.164 90.0361L652.788 89.5542L650.597 123.083L674.69 124.657Z" fill="black"/>
<path d="M814.061 99.2636L814.054 99.1679C813.935 97.444 813.523 95.9008 812.819 94.5384C812.144 93.1418 811.213 91.9715 810.024 91.0276C808.868 90.0814 807.473 89.3925 805.839 88.9607C804.235 88.4947 802.427 88.3316 800.416 88.4713L786.721 89.4227L789.05 122.942L796.424 122.43L795.726 112.374L801.328 111.985C803.211 111.854 804.951 111.492 806.545 110.9C808.17 110.274 809.554 109.424 810.699 108.35C811.875 107.274 812.763 105.978 813.363 104.46C813.964 102.943 814.196 101.211 814.061 99.2636ZM806.601 99.9262C806.701 101.363 806.274 102.611 805.321 103.672C804.366 104.701 802.963 105.279 801.112 105.408L795.27 105.814L794.558 95.5664L800.256 95.1705C802.108 95.0419 803.59 95.3719 804.703 96.1607C805.849 96.9472 806.479 98.1705 806.594 99.8305L806.601 99.9262ZM850.005 118.707L840.986 107.305C843.069 106.358 844.706 104.994 845.898 103.211C847.119 101.394 847.635 99.1285 847.446 96.415L847.44 96.3192C847.198 92.8396 845.892 90.2038 843.522 88.4117C841.184 86.6174 838.02 85.8589 834.03 86.1361L818.707 87.2007L821.035 120.72L828.41 120.208L827.664 109.481L833.458 109.079L841.386 119.306L850.005 118.707ZM840.003 97.317C840.103 98.7536 839.688 99.9372 838.758 100.868C837.86 101.796 836.502 102.324 834.682 102.45L827.212 102.969L826.543 93.3443L833.87 92.8353C835.689 92.7089 837.138 93.0093 838.215 93.7364C839.291 94.4635 839.885 95.6251 839.996 97.2213L840.003 97.317ZM888.617 99.1844L888.61 99.0886C888.444 96.6944 887.842 94.4908 886.804 92.4779C885.795 90.4309 884.44 88.6966 882.737 87.2752C881.064 85.8197 879.111 84.7204 876.879 83.9773C874.644 83.2024 872.233 82.9047 869.647 83.0843C867.062 83.264 864.7 83.8932 862.561 84.972C860.452 86.0166 858.655 87.3925 857.17 89.0995C855.715 90.7724 854.613 92.6934 853.866 94.8624C853.116 96.9995 852.824 99.2652 852.991 101.659L852.997 101.755C853.164 104.149 853.751 106.37 854.759 108.417C855.797 110.43 857.153 112.164 858.826 113.62C860.528 115.041 862.497 116.139 864.732 116.914C866.965 117.657 869.374 117.939 871.96 117.759C874.546 117.58 876.893 116.968 879.002 115.923C881.14 114.844 882.937 113.468 884.393 111.795C885.878 110.088 886.995 108.166 887.745 106.029C888.493 103.86 888.783 101.579 888.617 99.1844ZM880.914 99.8157C881.014 101.252 880.853 102.627 880.431 103.939C880.038 105.217 879.428 106.366 878.601 107.386C877.806 108.404 876.804 109.227 875.597 109.856C874.39 110.486 873.052 110.851 871.583 110.953C870.083 111.057 868.692 110.881 867.409 110.425C866.156 109.935 865.033 109.243 864.041 108.35C863.08 107.454 862.301 106.386 861.701 105.144C861.134 103.9 860.8 102.56 860.7 101.124L860.693 101.028C860.594 99.5915 860.74 98.2341 861.132 96.9558C861.554 95.6434 862.163 94.4784 862.958 93.4609C863.786 92.4411 864.787 91.6177 865.962 90.9907C867.17 90.3615 868.524 89.9948 870.024 89.8906C871.492 89.7886 872.869 89.9816 874.154 90.4698C875.437 90.926 876.558 91.6019 877.519 92.4974C878.511 93.3908 879.291 94.4593 879.858 95.703C880.458 96.9444 880.808 98.2834 880.907 99.72L880.914 99.8157ZM926.448 108.633L925.437 94.0763L910.88 95.0876L911.322 101.456L918.744 100.941L919.077 105.729C917.287 107.201 915.019 108.032 912.273 108.223C910.773 108.327 909.382 108.167 908.102 107.743C906.851 107.284 905.73 106.608 904.737 105.715C903.777 104.819 902.997 103.751 902.398 102.509C901.828 101.234 901.49 99.8298 901.383 98.2975L901.377 98.2017C901.277 96.7652 901.423 95.4078 901.815 94.1295C902.237 92.8171 902.847 91.6681 903.645 90.6824C904.472 89.6626 905.442 88.8415 906.553 88.2189C907.694 87.5623 908.935 87.1873 910.276 87.0942C911.234 87.0277 912.117 87.0465 912.926 87.1507C913.736 87.2548 914.485 87.4273 915.176 87.668C915.898 87.9065 916.593 88.2111 917.26 88.5818C917.927 88.9524 918.599 89.3869 919.275 89.8852L923.531 83.9601C922.618 83.2857 921.679 82.6934 920.713 82.1831C919.747 81.6728 918.724 81.2627 917.644 80.9528C916.564 80.6429 915.395 80.4354 914.137 80.3304C912.908 80.1912 911.544 80.1737 910.043 80.278C907.489 80.4554 905.175 81.0813 903.101 82.1556C901.024 83.1981 899.259 84.5717 897.806 86.2765C896.35 87.9494 895.248 89.8704 894.501 92.0394C893.783 94.1743 893.507 96.4388 893.674 98.8331L893.68 98.9288C893.853 101.419 894.444 103.687 895.452 105.734C896.461 107.781 897.784 109.518 899.423 110.944C901.094 112.367 903.028 113.436 905.227 114.149C907.458 114.86 909.882 115.125 912.5 114.943C915.564 114.73 918.242 114.031 920.534 112.845C922.855 111.625 924.826 110.221 926.448 108.633ZM962.843 110.868L953.823 99.466C955.906 98.5193 957.544 97.1545 958.735 95.3717C959.956 93.5547 960.472 91.2895 960.284 88.576L960.277 88.4802C960.035 85.0006 958.73 82.3648 956.36 80.5727C954.022 78.7784 950.857 78.0199 946.867 78.2971L931.544 79.3616L933.873 112.881L941.247 112.369L940.502 101.642L946.296 101.24L954.224 111.467L962.843 110.868ZM952.84 89.478C952.94 90.9146 952.525 92.0982 951.595 93.0289C950.698 93.9573 949.339 94.4847 947.519 94.6112L940.049 95.1301L939.381 85.5053L946.707 84.9963C948.527 84.8699 949.975 85.1703 951.052 85.8974C952.129 86.6245 952.723 87.7861 952.834 89.3823L952.84 89.478ZM1001.13 108.208L984.423 75.4475L977.624 75.9198L965.604 110.676L973.122 110.154L975.664 102.423L989.838 101.439L993.425 108.744L1001.13 108.208ZM986.752 95.1094L977.845 95.7281L981.543 84.5489L986.752 95.1094ZM1039.83 105.52L1037.5 72.0008L1029.55 72.5531L1021.72 87.339L1011.93 73.7773L1003.98 74.3295L1006.31 107.849L1013.54 107.346L1012.03 85.6068L1022.35 99.1319L1022.54 99.1186L1030.98 84.1458L1032.5 106.029L1039.83 105.52Z" fill="black"/>
</svg>
