<svg width="1440" height="173" viewBox="0 0 1440 173" fill="none" xmlns="http://www.w3.org/2000/svg">
<path d="M723.5 48L0 0V125L720.5 173L1440 125V0L723.5 48Z" fill="#8AD0EC"/>
<path d="M408.316 85.3169L408.322 85.2212C408.435 83.4968 408.234 81.9123 407.719 80.4677C407.238 78.9932 406.472 77.7085 405.421 76.6137C404.402 75.5209 403.112 74.651 401.551 74.0038C400.024 73.3268 398.254 72.9226 396.243 72.7911L382.544 71.896L380.353 105.425L387.729 105.906L388.387 95.8479L393.991 96.2141C395.875 96.3372 397.647 96.2125 399.306 95.8399C401 95.4375 402.486 94.781 403.764 93.8704C405.074 92.9619 406.129 91.7961 406.927 90.3732C407.726 88.9502 408.188 87.2648 408.316 85.3169ZM400.834 84.9724C400.74 86.4093 400.15 87.5894 399.064 88.5125C397.979 89.4037 396.511 89.7888 394.659 89.6678L388.815 89.2859L389.485 79.0358L395.185 79.4082C397.037 79.5292 398.462 80.0553 399.459 80.9863C400.489 81.9194 400.949 83.2161 400.841 84.8766L400.834 84.9724ZM441.326 109.409L433.918 96.8989C436.109 96.2404 437.915 95.1077 439.335 93.5009C440.788 91.8642 441.604 89.6887 441.781 86.9745L441.788 86.8787C442.015 83.3981 441.075 80.6109 438.967 78.517C436.891 76.4252 433.857 75.2489 429.866 74.9881L414.538 73.9866L412.347 107.515L419.724 107.997L420.425 97.2679L426.22 97.6466L432.704 108.845L441.326 109.409ZM434.284 86.8695C434.19 88.3064 433.62 89.4236 432.574 90.2211C431.56 91.0207 430.143 91.361 428.323 91.242L420.85 90.7538L421.48 81.1263L428.808 81.6052C430.628 81.7241 432.023 82.2161 432.993 83.0812C433.962 83.9462 434.395 85.1771 434.291 86.7737L434.284 86.8695ZM482.208 95.244L482.214 95.1482C482.37 92.7533 482.069 90.4889 481.311 88.3549C480.587 86.191 479.476 84.2906 477.98 82.6535C476.517 80.9866 474.73 79.6352 472.617 78.5992C470.506 77.5313 468.157 76.9129 465.571 76.7439C462.984 76.5749 460.559 76.8814 458.295 77.6634C456.065 78.4157 454.1 79.5379 452.399 81.0302C450.732 82.4926 449.383 84.2483 448.351 86.2974C447.321 88.3146 446.728 90.5206 446.572 92.9155L446.565 93.0113C446.409 95.4062 446.693 97.6856 447.417 99.8494C448.176 101.983 449.286 103.884 450.749 105.551C452.245 107.188 454.049 108.54 456.16 109.608C458.273 110.644 460.622 111.247 463.209 111.416C465.795 111.585 468.203 111.293 470.433 110.541C472.697 109.759 474.662 108.637 476.329 107.174C478.03 105.682 479.396 103.927 480.425 101.91C481.457 99.8609 482.051 97.6389 482.208 95.244ZM474.49 94.8359C474.396 96.2729 474.052 97.6133 473.458 98.8572C472.897 100.071 472.139 101.128 471.182 102.028C470.257 102.929 469.154 103.611 467.874 104.072C466.593 104.534 465.218 104.716 463.749 104.62C462.248 104.522 460.893 104.161 459.683 103.537C458.507 102.883 457.488 102.047 456.624 101.028C455.793 100.012 455.163 98.8483 454.736 97.5376C454.34 96.2291 454.189 94.8563 454.283 93.4194L454.29 93.3236C454.383 91.8867 454.711 90.5612 455.271 89.3471C455.865 88.1032 456.625 87.0305 457.55 86.1288C458.506 85.2293 459.609 84.5478 460.858 84.0842C462.139 83.6227 463.53 83.441 465.03 83.5391C466.499 83.6351 467.838 84.0111 469.045 84.6673C470.255 85.2915 471.276 86.1118 472.107 87.1282C472.971 88.1466 473.6 89.3102 473.996 90.6187C474.423 91.9294 474.59 93.3032 474.496 94.7401L474.49 94.8359ZM518.429 109.684L519.38 95.1235L504.819 94.172L504.403 100.542L511.827 101.028L511.514 105.817C509.542 107.035 507.183 107.555 504.437 107.375C502.936 107.277 501.58 106.932 500.368 106.34C499.19 105.718 498.17 104.897 497.306 103.879C496.475 102.862 495.845 101.699 495.418 100.388C495.024 99.0478 494.878 97.6112 494.978 96.0784L494.984 95.9826C495.078 94.5457 495.405 93.2202 495.965 92.0062C496.56 90.7623 497.318 89.7055 498.241 88.8358C499.198 87.9362 500.268 87.2526 501.453 86.7849C502.673 86.2873 503.953 86.0823 505.294 86.17C506.252 86.2326 507.125 86.3698 507.912 86.5816C508.7 86.7934 509.42 87.0649 510.072 87.3961C510.756 87.7294 511.403 88.1245 512.015 88.5813C512.626 89.0382 513.234 89.5589 513.837 90.1435L518.849 84.843C518.035 84.0522 517.184 83.3392 516.295 82.7039C515.407 82.0686 514.448 81.525 513.419 81.0729C512.391 80.6209 511.26 80.2584 510.027 79.9854C508.828 79.6826 507.478 79.4822 505.978 79.3841C503.423 79.2172 501.046 79.5269 498.846 80.3131C496.648 81.0674 494.715 82.1917 493.046 83.6861C491.379 85.1485 490.029 86.9043 488.998 88.9533C488 90.9726 487.423 93.1796 487.266 95.5745L487.26 95.6703C487.097 98.161 487.378 100.488 488.102 102.652C488.827 104.816 489.905 106.714 491.338 108.347C492.803 109.982 494.576 111.301 496.659 112.303C498.775 113.307 501.141 113.894 503.76 114.065C506.825 114.266 509.573 113.932 512.002 113.065C514.466 112.167 516.608 111.041 518.429 109.684ZM554.194 116.784L546.786 104.274C548.978 103.615 550.784 102.483 552.203 100.876C553.657 99.2392 554.473 97.0637 554.65 94.3495L554.656 94.2537C554.884 90.7732 553.944 87.9859 551.836 85.892C549.76 83.8002 546.726 82.6239 542.734 82.3631L527.407 81.3616L525.216 114.89L532.592 115.372L533.293 104.643L539.089 105.022L545.573 116.22L554.194 116.784ZM547.153 94.2445C547.059 95.6814 546.489 96.7986 545.443 97.5961C544.429 98.3957 543.011 98.736 541.191 98.6171L533.719 98.1288L534.348 88.5014L541.677 88.9802C543.497 89.0991 544.892 89.5911 545.861 90.4562C546.831 91.3213 547.264 92.5521 547.159 94.1487L547.153 94.2445ZM592.496 119.286L580.333 84.5793L573.532 84.1349L556.956 116.964L564.476 117.455L568.033 110.136L582.211 111.062L584.785 118.782L592.496 119.286ZM580.002 104.376L571.093 103.794L576.258 93.212L580.002 104.376ZM631.2 121.815L633.39 88.2867L625.439 87.7672L615.7 101.369L607.813 86.6154L599.862 86.0959L597.671 119.624L604.904 120.097L606.324 98.3513L614.738 113.139L614.93 113.152L625.301 99.447L623.871 121.336L631.2 121.815ZM671.921 124.476L659.758 89.7691L652.956 89.3246L636.38 122.154L643.9 122.645L647.457 115.325L661.635 116.252L664.209 123.972L671.921 124.476ZM659.426 109.566L650.517 108.983L655.682 98.4017L659.426 109.566Z" fill="black"/>
<path d="M802.134 122.033L801.678 115.473L783.482 116.737L782.993 109.698L798.795 108.6L798.339 102.04L782.537 103.138L782.065 96.3381L800.021 95.0906L799.566 88.5304L774.283 90.2869L776.611 123.806L802.134 122.033ZM832.776 119.904L832.31 113.2L815.599 114.361L813.736 87.546L806.361 88.0583L808.69 121.578L832.776 119.904ZM863.86 117.745L863.404 111.185L845.208 112.449L844.719 105.41L860.521 104.312L860.065 97.7517L844.263 98.8495L843.791 92.0499L861.748 90.8024L861.292 84.2422L836.009 85.9986L838.337 119.518L863.86 117.745ZM878.126 116.754L875.797 83.2345L868.423 83.7468L870.752 117.266L878.126 116.754ZM910.025 87.689L909.553 80.8894L881.78 82.8189L882.252 89.6185L892.451 88.9099L894.308 115.63L901.682 115.117L899.826 88.3976L910.025 87.689ZM950.53 94.8832L950.523 94.7874C950.357 92.3932 949.755 90.1896 948.717 88.1767C947.709 86.1296 946.353 84.3954 944.651 82.974C942.978 81.5184 941.025 80.4191 938.792 79.6761C936.557 78.9011 934.146 78.6035 931.561 78.7831C928.975 78.9627 926.613 79.592 924.474 80.6708C922.366 81.7154 920.569 83.0913 919.084 84.7983C917.628 86.4712 916.526 88.3922 915.779 90.5612C915.029 92.6983 914.738 94.9639 914.904 97.3582L914.911 97.4539C915.077 99.8482 915.664 102.069 916.673 104.116C917.711 106.129 919.066 107.863 920.739 109.319C922.442 110.74 924.41 111.838 926.645 112.613C928.878 113.356 931.288 113.638 933.873 113.458C936.459 113.279 938.806 112.666 940.915 111.622C943.053 110.543 944.85 109.167 946.306 107.494C947.791 105.787 948.909 103.865 949.658 101.728C950.406 99.559 950.696 97.2774 950.53 94.8832ZM942.827 95.5145C942.927 96.951 942.766 98.3255 942.344 99.6379C941.952 100.916 941.342 102.065 940.514 103.085C939.719 104.103 938.718 104.926 937.51 105.555C936.303 106.184 934.965 106.55 933.497 106.652C931.996 106.756 930.605 106.58 929.322 106.124C928.069 105.634 926.947 104.942 925.954 104.048C924.994 103.153 924.214 102.084 923.614 100.843C923.047 99.5992 922.713 98.2591 922.613 96.8226L922.607 96.7268C922.507 95.2903 922.653 93.9329 923.046 92.6546C923.468 91.3422 924.076 90.1772 924.872 89.1596C925.699 88.1398 926.7 87.3165 927.876 86.6895C929.083 86.0603 930.437 85.6936 931.937 85.5894C933.406 85.4874 934.782 85.6804 936.067 86.1685C937.35 86.6247 938.472 87.3006 939.432 88.1962C940.424 89.0896 941.204 90.1581 941.772 91.4018C942.371 92.6432 942.721 93.9822 942.821 95.4187L942.827 95.5145ZM987.206 109.176L978.186 97.7734C980.27 96.8267 981.907 95.462 983.098 93.6791C984.319 91.8621 984.835 89.5969 984.647 86.8835L984.64 86.7877C984.399 83.3081 983.093 80.6722 980.723 78.8802C978.385 77.0859 975.221 76.3274 971.23 76.6046L955.907 77.6691L958.236 111.188L965.61 110.676L964.865 99.9499L970.659 99.5473L978.587 109.774L987.206 109.176ZM977.204 87.7855C977.303 89.222 976.888 90.4056 975.959 91.3363C975.061 92.2648 973.702 92.7922 971.883 92.9186L964.413 93.4376L963.744 83.8128L971.07 83.3038C972.89 83.1774 974.338 83.4777 975.415 84.2048C976.492 84.9319 977.086 86.0936 977.197 87.6897L977.204 87.7855ZM1025.5 106.516L1008.79 73.7549L1001.99 74.2273L989.967 108.984L997.485 108.462L1000.03 100.731L1014.2 99.7462L1017.79 107.051L1025.5 106.516ZM1011.11 93.4168L1002.21 94.0356L1005.91 82.8564L1011.11 93.4168ZM1054.76 104.483L1054.29 97.779L1037.58 98.94L1035.72 72.1246L1028.34 72.6369L1030.67 106.156L1054.76 104.483Z" fill="black"/>
</svg>
