<svg width="996" height="264" viewBox="0 0 996 264" fill="none" xmlns="http://www.w3.org/2000/svg">
<path d="M136.912 82.496V82.208C136.912 78.752 136.288 75.728 135.04 73.136C133.792 70.448 132.112 68.144 130 66.224C127.984 64.208 125.584 62.576 122.8 61.328C120.016 59.984 117.136 58.928 114.16 58.16C116.176 57.296 118.192 56.24 120.208 54.992C122.32 53.648 124.192 52.016 125.824 50.096C127.456 48.176 128.752 45.92 129.712 43.328C130.768 40.736 131.296 37.712 131.296 34.256V33.968C131.296 30.224 130.48 26.816 128.848 23.744C127.312 20.672 125.104 18.08 122.224 15.968C119.44 13.76 116.032 12.08 112 10.928C107.968 9.77599 103.504 9.19999 98.6076 9.19999H56.9916V110H100.768C106.24 110 111.184 109.376 115.6 108.128C120.016 106.784 123.808 104.96 126.976 102.656C130.144 100.256 132.592 97.376 134.32 94.016C136.048 90.56 136.912 86.72 136.912 82.496ZM123.664 34.976C123.664 38.336 122.992 41.312 121.648 43.904C120.4 46.496 118.624 48.656 116.32 50.384C114.016 52.112 111.28 53.456 108.112 54.416C104.944 55.28 101.488 55.712 97.7436 55.712H64.4796V16.112H98.4636C106.624 16.112 112.864 17.84 117.184 21.296C121.504 24.656 123.664 29.12 123.664 34.688V34.976ZM129.28 82.496C129.28 88.832 126.736 93.872 121.648 97.616C116.56 101.264 109.696 103.088 101.056 103.088H64.4796V62.624H98.6076C108.592 62.624 116.176 64.352 121.36 67.808C126.64 71.168 129.28 75.968 129.28 82.208V82.496ZM233.346 110V103.088H168.402V62.624H226.146V55.712H168.402V16.112H232.626V9.19999H160.914V110H233.346ZM377.45 44.336V44.048C377.45 38.864 376.538 34.16 374.714 29.936C372.986 25.616 370.442 21.92 367.082 18.848C363.818 15.776 359.786 13.424 354.986 11.792C350.282 10.064 344.906 9.19999 338.858 9.19999H297.674V110H319.85V79.76H336.698C342.362 79.76 347.642 79.04 352.538 77.6C357.53 76.064 361.85 73.808 365.498 70.832C369.242 67.856 372.17 64.16 374.282 59.744C376.394 55.328 377.45 50.192 377.45 44.336ZM354.986 44.768C354.986 49.088 353.45 52.736 350.378 55.712C347.306 58.592 342.986 60.032 337.418 60.032H319.85V29.216H336.986C342.554 29.216 346.922 30.512 350.09 33.104C353.354 35.696 354.986 39.488 354.986 44.48V44.768ZM492.07 110L448.87 8.47999H428.422L385.222 110H407.83L417.046 87.392H459.67L468.886 110H492.07ZM451.75 67.808H424.966L438.358 35.12L451.75 67.808ZM594.747 110L570.123 74C576.555 71.6 581.739 67.856 585.675 62.768C589.707 57.584 591.723 50.912 591.723 42.752V42.464C591.723 32 588.363 23.84 581.643 17.984C575.019 12.128 565.707 9.19999 553.707 9.19999H507.627V110H529.803V77.744H547.227L568.827 110H594.747ZM569.259 43.904C569.259 48.224 567.771 51.68 564.795 54.272C561.915 56.864 557.739 58.16 552.267 58.16H529.803V29.216H551.835C557.307 29.216 561.579 30.416 564.651 32.816C567.723 35.216 569.259 38.816 569.259 43.616V43.904ZM688.01 29.648V9.19999H604.49V29.648H635.162V110H657.338V29.648H688.01ZM848.029 59.6C848.125 59.504 848.125 59.408 848.029 59.312C848.029 52.4 846.829 45.824 844.429 39.584C842.029 33.344 838.621 27.872 834.205 23.168C829.789 18.368 824.461 14.576 818.221 11.792C811.981 8.912 805.069 7.472 797.485 7.472C789.805 7.472 782.845 8.912 776.605 11.792C770.365 14.576 765.037 18.368 760.621 23.168C756.205 27.968 752.749 33.536 750.253 39.872C747.853 46.112 746.653 52.688 746.653 59.6V59.888C746.653 66.8 747.853 73.376 750.253 79.616C752.653 85.856 756.061 91.376 760.477 96.176C764.893 100.88 770.173 104.672 776.317 107.552C782.557 110.336 789.517 111.728 797.197 111.728C804.781 111.728 811.693 110.336 817.933 107.552C824.269 104.672 829.645 100.832 834.061 96.032C838.477 91.232 841.885 85.712 844.285 79.472C846.781 73.136 848.029 66.512 848.029 59.6ZM840.253 59.888C840.253 66.128 839.197 71.984 837.085 77.456C834.973 82.928 831.997 87.728 828.157 91.856C824.413 95.888 819.901 99.104 814.621 101.504C809.437 103.808 803.725 104.96 797.485 104.96C791.245 104.96 785.485 103.76 780.205 101.36C774.925 98.96 770.365 95.744 766.525 91.712C762.781 87.584 759.805 82.784 757.597 77.312C755.485 71.744 754.429 65.84 754.429 59.6V59.312C754.429 53.072 755.485 47.216 757.597 41.744C759.709 36.272 762.637 31.52 766.381 27.488C770.221 23.36 774.733 20.144 779.917 17.84C785.197 15.44 790.957 14.24 797.197 14.24C803.437 14.24 809.197 15.44 814.477 17.84C819.757 20.24 824.269 23.504 828.013 27.632C831.853 31.664 834.829 36.464 836.941 42.032C839.149 47.504 840.253 53.36 840.253 59.6V59.888ZM944.452 16.112V9.19999H873.46V110H880.948V64.352H937.972V57.44H880.948V16.112H944.452Z" fill="black"/>
<path d="M86.0048 142.112V135.2H8.24475V142.112H43.3808V236H50.8688V142.112H86.0048ZM188.308 236V135.2H180.82V181.856H116.308V135.2H108.82V236H116.308V188.768H180.82V236H188.308ZM290.658 236V229.088H225.714V188.624H283.458V181.712H225.714V142.112H289.938V135.2H218.226V236H290.658ZM443.547 219.728L429.435 205.472C425.499 209.12 421.515 212 417.483 214.112C413.547 216.224 408.699 217.28 402.939 217.28C398.619 217.28 394.635 216.464 390.987 214.832C387.435 213.104 384.363 210.8 381.771 207.92C379.275 205.04 377.307 201.68 375.867 197.84C374.427 194 373.707 189.92 373.707 185.6V185.312C373.707 180.992 374.427 176.96 375.867 173.216C377.307 169.376 379.323 166.016 381.915 163.136C384.507 160.256 387.579 158 391.131 156.368C394.779 154.736 398.715 153.92 402.939 153.92C408.027 153.92 412.587 154.928 416.619 156.944C420.747 158.96 424.779 161.744 428.715 165.296L442.827 149.024C440.523 146.72 438.027 144.608 435.339 142.688C432.651 140.768 429.723 139.136 426.555 137.792C423.387 136.448 419.835 135.392 415.899 134.624C412.059 133.856 407.787 133.472 403.083 133.472C395.307 133.472 388.203 134.864 381.771 137.648C375.339 140.336 369.819 144.08 365.211 148.88C360.603 153.584 357.003 159.104 354.411 165.44C351.819 171.68 350.523 178.4 350.523 185.6V185.888C350.523 193.088 351.819 199.856 354.411 206.192C357.003 212.528 360.603 218.048 365.211 222.752C369.819 227.36 375.291 231.008 381.627 233.696C387.963 236.384 394.827 237.728 402.219 237.728C407.115 237.728 411.531 237.296 415.467 236.432C419.403 235.664 423.003 234.512 426.267 232.976C429.627 231.344 432.699 229.424 435.483 227.216C438.267 225.008 440.955 222.512 443.547 219.728ZM546.547 236V135.2H524.371V175.088H483.475V135.2H461.299V236H483.475V195.536H524.371V236H546.547ZM668.913 236L625.713 134.48H605.265L562.065 236H584.673L593.889 213.392H636.513L645.729 236H668.913ZM628.593 193.808H601.809L615.201 161.12L628.593 193.808ZM774.039 236V135.2H752.151V197.264L704.919 135.2H684.471V236H706.359V171.92L755.175 236H774.039ZM889.821 221.744V177.968H846.045V197.12H868.365V211.52C862.701 215.552 855.741 217.568 847.485 217.568C842.973 217.568 838.845 216.8 835.101 215.264C831.453 213.632 828.237 211.376 825.453 208.496C822.765 205.616 820.653 202.256 819.117 198.416C817.677 194.48 816.957 190.208 816.957 185.6V185.312C816.957 180.992 817.677 176.96 819.117 173.216C820.653 169.376 822.717 166.064 825.309 163.28C827.997 160.4 831.069 158.144 834.525 156.512C838.077 154.784 841.869 153.92 845.901 153.92C848.781 153.92 851.421 154.16 853.821 154.64C856.221 155.12 858.429 155.792 860.445 156.656C862.557 157.52 864.573 158.576 866.493 159.824C868.413 161.072 870.333 162.512 872.253 164.144L886.221 147.296C883.629 145.088 880.941 143.12 878.157 141.392C875.373 139.664 872.397 138.224 869.229 137.072C866.061 135.92 862.605 135.056 858.861 134.48C855.213 133.808 851.133 133.472 846.621 133.472C838.941 133.472 831.885 134.864 825.453 137.648C819.021 140.336 813.453 144.08 808.749 148.88C804.045 153.584 800.349 159.104 797.661 165.44C795.069 171.68 793.773 178.4 793.773 185.6V185.888C793.773 193.376 795.069 200.288 797.661 206.624C800.253 212.96 803.853 218.432 808.461 223.04C813.165 227.648 818.733 231.248 825.165 233.84C831.693 236.432 838.893 237.728 846.765 237.728C855.981 237.728 864.141 236.192 871.245 233.12C878.445 229.952 884.637 226.16 889.821 221.744ZM987.911 236V216.272H933.191V195.104H980.711V175.376H933.191V154.928H987.191V135.2H911.159V236H987.911Z" fill="black"/>
</svg>
