<?xml version="1.0" encoding="utf-8"?>
<!-- Generator: Adobe Illustrator 24.3.0, SVG Export Plug-In . SVG Version: 6.00 Build 0)  -->
<svg version="1.2" baseProfile="tiny" id="Layer_1" xmlns="http://www.w3.org/2000/svg" xmlns:xlink="http://www.w3.org/1999/xlink"
	 x="0px" y="0px" viewBox="0 0 3061.42 3061.42" overflow="visible" xml:space="preserve">
<g>
	<path fill="#FFFFFF" d="M1480.73,2645.42c-354.91,0-709.83,0-1064.74,0c0-743.14,0-1486.29,0-2229.43c743.14,0,1486.29,0,2229.43,0
		c0,743.14,0,1486.29,0,2229.43c-360.71,0-721.41,0-1082.12,0c9.7-2.26,19.36-4.66,29.09-6.75
		c104.97-22.52,193.5-82.84,289.34-126.33c15.84-7.19,18.9-22.9,12.07-39.29c-8.46-20.31-25.24-25.62-48.64-14.35
		c-59.94,28.85-119.64,58.21-179.5,87.24c-86.78,42.09-175.07,45.27-265.03,10.62c-154.49-59.5-309.06-118.75-463.66-177.96
		c-8.02-3.07-16.53-6.83-24.83-6.87c-95.59-0.49-191.19-0.58-286.79-0.12c-20.44,0.1-33.07,16.1-31.09,36.15
		c1.89,19.03,14.41,28.62,38.93,28.66c84.01,0.17,168.02-0.3,252.03,0.43c14.03,0.12,28.61,3.29,41.94,7.94
		C1112.51,2509.36,1289.64,2596.63,1480.73,2645.42z M1528.58,651.62c-93.81-136.3-220.99-211.53-382.19-228.97
		c-70.9-7.67-140.13,1.57-207.34,25.18c-21.25,7.47-28.92,23.06-22.67,42.47c6.34,19.68,22.72,25.84,48.03,17.58
		c115.97-37.81,228.55-28.03,337.05,26.1c85.46,42.64,150.52,106.92,194.09,192.27c7.09,13.9,17.08,26.66,32.79,23.08
		c11.65-2.66,21.63-13.81,31.61-22.09c3.63-3.01,4.98-8.7,7.55-13.06c89.05-151.39,220.6-233.55,397-225.94
		c182.9,7.89,318.76,96.78,395.84,265.46c50.67,110.88,46.34,226.71,17.98,342.51c-39.52,161.42-127.19,295.27-241.58,412.75
		c-168.24,172.78-370.33,294.98-589.63,391.15c-13.85,6.07-25.13,5.82-38.78-0.22c-208.32-92.16-396.95-214.58-563.89-369.49
		c-118.13-109.62-210.05-238.15-255.93-394.12c-60.22-204.72-39.88-392.77,128.18-545.04c16.07-14.56,16.3-33.16,2.58-47.74
		c-13.06-13.89-29.62-14.28-46.16-0.2c-53.61,45.66-96.77,99.69-126.85,163.47c-67.72,143.59-65.93,291.25-23.07,440.56
		c47.05,163.9,142.88,297.86,262.2,415.95c179.34,177.5,390.72,306.92,621.67,405.57c12.22,5.22,30.37,4.7,42.94-0.27
		c169.16-66.92,326.6-155.05,470.19-266.96c144.24-112.41,268.81-242.57,352.51-407.23c73.2-143.99,109.43-295.47,81.32-457.59
		c-62.97-363.17-506.24-538.87-801.18-317.98C1604.28,555.21,1564.38,599.66,1528.58,651.62z M1796.84,2186.04
		c-17.79-90.76-79.07-116.22-147.03-115.86c-334.58,1.77-669.17,0.8-1003.75,0.82c-7.96,0-15.98-0.3-23.88,0.49
		c-18.12,1.81-26.79,13.34-27.8,30.45c-1.04,17.46,7.33,29.44,24.78,33c8.39,1.71,17.29,1.18,25.95,1.18
		c335.31,0.05,670.62,0.04,1005.93,0.07c9.41,0,18.89-0.27,28.22,0.69c28.11,2.91,48.99,25.79,49.82,53.89
		c1.04,35.06-23.91,59-62.83,59.08c-113.7,0.24-227.4,0.02-341.1,0.16c-24.34,0.03-37.38,11.4-37.97,32.02
		c-0.6,20.8,12.32,32.97,36.63,33.01c116.6,0.17,233.2,0.29,349.79-0.13c36.69-0.13,66.74-15.63,91.94-42.31
		c7.39-7.83,17.85-14.68,28.14-17.55c75.21-20.96,150.68-40.96,226.16-60.92c69.18-18.29,138.25-37.06,207.82-53.78
		c28.27-6.8,52.95,6.33,64.43,28.74c11.68,22.8,7.09,52.47-13.32,71.78c-9.77,9.24-21.91,16.6-34.07,22.61
		c-77.78,38.48-155.94,76.2-233.81,114.5c-22.72,11.17-28.96,30.87-16.81,49.54c10.15,15.59,24.88,18.77,45.83,8.61
		c83.28-40.39,166.49-80.9,249.51-121.82c10.92-5.38,21.51-12.28,30.65-20.3c36.22-31.79,50.18-72.23,40.5-119.22
		c-9.98-48.44-38.13-84.64-87.05-95.31c-27.02-5.89-58.01-3.9-85.15,2.86c-110.12,27.41-219.44,58.07-329.07,87.47
		C1838.55,2175.37,1817.72,2180.62,1796.84,2186.04z M764.53,962.51c-0.32,79.82,15.23,151.52,41.83,199.75
		c12.07,21.89,27.14,28.05,45.71,18.67c18.61-9.39,22.64-25.52,12.53-47.61c-6.3-13.77-13.54-27.43-17.41-41.93
		c-26.75-100.24-26.69-198.49,23.91-292.57c9.99-18.57,6.02-36.01-9.37-45.78c-16.91-10.73-35.44-5.52-47.53,14.46
		C776.68,829.54,767.04,898.56,764.53,962.51z"/>
	<path d="M1480.73,2645.42c-191.09-48.8-368.22-136.06-553.57-200.64c-13.32-4.64-27.91-7.81-41.94-7.94
		c-84-0.73-168.02-0.26-252.03-0.43c-24.52-0.05-37.04-9.64-38.93-28.66c-1.99-20.05,10.64-36.05,31.09-36.15
		c95.59-0.46,191.19-0.37,286.79,0.12c8.3,0.04,16.81,3.8,24.83,6.87c154.59,59.21,309.17,118.46,463.66,177.96
		c89.97,34.65,178.26,31.46,265.03-10.62c59.86-29.03,119.55-58.39,179.5-87.24c23.4-11.26,40.19-5.96,48.64,14.35
		c6.83,16.39,3.77,32.11-12.07,39.29c-95.83,43.49-184.36,103.81-289.34,126.33c-9.73,2.09-19.4,4.49-29.09,6.75
		C1535.78,2645.42,1508.26,2645.42,1480.73,2645.42z"/>
	<path d="M1528.58,651.62c35.79-51.96,75.7-96.41,124.26-132.78c294.94-220.89,738.21-45.19,801.18,317.98
		c28.11,162.13-8.12,313.6-81.32,457.59c-83.71,164.66-208.27,294.82-352.51,407.23c-143.59,111.91-301.02,200.03-470.19,266.96
		c-12.57,4.97-30.72,5.49-42.94,0.27c-230.95-98.66-442.33-228.07-621.67-405.57c-119.32-118.09-215.15-252.05-262.2-415.95
		c-42.86-149.31-44.65-296.97,23.07-440.56c30.08-63.78,73.24-117.81,126.85-163.47c16.54-14.09,33.1-13.69,46.16,0.2
		c13.72,14.58,13.49,33.18-2.58,47.74c-168.06,152.27-188.4,340.32-128.18,545.04c45.88,155.96,137.8,284.5,255.93,394.12
		c166.93,154.91,355.56,277.34,563.89,369.49c13.65,6.04,24.93,6.29,38.78,0.22c219.29-96.17,421.39-218.37,589.63-391.15
		c114.39-117.48,202.06-251.33,241.58-412.75c28.35-115.81,32.69-231.63-17.98-342.51c-77.08-168.67-212.94-257.57-395.84-265.46
		c-176.4-7.61-307.94,74.55-397,225.94c-2.57,4.36-3.92,10.05-7.55,13.06c-9.97,8.27-19.95,19.43-31.61,22.09
		c-15.7,3.58-25.69-9.18-32.79-23.08c-43.57-85.35-108.62-149.63-194.09-192.27c-108.5-54.14-221.08-63.91-337.05-26.1
		c-25.31,8.25-41.69,2.1-48.03-17.58c-6.25-19.41,1.42-35.01,22.67-42.47c67.2-23.61,136.44-32.85,207.34-25.18
		C1307.59,440.09,1434.77,515.33,1528.58,651.62z"/>
	<path d="M1796.84,2186.04c20.88-5.42,41.71-10.67,62.45-16.23c109.63-29.39,218.95-60.05,329.07-87.47
		c27.13-6.75,58.12-8.75,85.15-2.86c48.92,10.67,77.08,46.87,87.05,95.31c9.68,46.98-4.28,87.43-40.5,119.22
		c-9.14,8.02-19.73,14.92-30.65,20.3c-83.02,40.92-166.23,81.43-249.51,121.82c-20.95,10.16-35.67,6.98-45.83-8.61
		c-12.15-18.66-5.9-38.36,16.81-49.54c77.87-38.3,156.02-76.02,233.81-114.5c12.15-6.01,24.29-13.37,34.07-22.61
		c20.41-19.3,25-48.98,13.32-71.78c-11.48-22.41-36.16-35.54-64.43-28.74c-69.56,16.72-138.64,35.49-207.82,53.78
		c-75.48,19.96-150.95,39.96-226.16,60.92c-10.29,2.87-20.75,9.72-28.14,17.55c-25.2,26.68-55.25,42.18-91.94,42.31
		c-116.6,0.43-233.2,0.3-349.79,0.13c-24.31-0.03-37.23-12.2-36.63-33.01c0.6-20.62,13.63-31.99,37.97-32.02
		c113.7-0.14,227.4,0.08,341.1-0.16c38.92-0.08,63.87-24.02,62.83-59.08c-0.83-28.1-21.71-50.98-49.82-53.89
		c-9.33-0.97-18.81-0.69-28.22-0.69c-335.31-0.03-670.62-0.02-1005.93-0.07c-8.67,0-17.57,0.53-25.95-1.18
		c-17.45-3.56-25.82-15.55-24.78-33c1.02-17.12,9.68-28.64,27.8-30.45c7.9-0.79,15.91-0.49,23.88-0.49
		c334.59-0.02,669.18,0.95,1003.75-0.82C1717.77,2069.82,1779.05,2095.28,1796.84,2186.04z"/>
	<path d="M764.53,962.51c2.51-63.95,12.15-132.97,49.68-195c12.09-19.98,30.62-25.2,47.53-14.46c15.38,9.77,19.36,27.21,9.37,45.78
		c-50.6,94.08-50.65,192.33-23.91,292.57c3.87,14.5,11.11,28.16,17.41,41.93c10.1,22.08,6.07,38.22-12.53,47.61
		c-18.57,9.37-33.64,3.21-45.71-18.67C779.76,1114.03,764.21,1042.33,764.53,962.51z"/>
</g>
</svg>
