<?xml version="1.0" encoding="utf-8"?>
<!-- Generator: Adobe Illustrator 24.3.0, SVG Export Plug-In . SVG Version: 6.00 Build 0)  -->
<svg version="1.2" baseProfile="tiny" id="Layer_1" xmlns="http://www.w3.org/2000/svg" xmlns:xlink="http://www.w3.org/1999/xlink"
	 x="0px" y="0px" viewBox="0 0 3061.42 3061.42" overflow="visible" xml:space="preserve">
<g>
	<path d="M402.43,1818.83c6.64-32.91,9.67-67.09,20.77-98.42c16.78-47.37,37.89-93.36,59.43-138.87
		c48.53-102.54,98.45-204.43,147.8-306.59c2.23-4.61,4.13-9.41,6.62-13.87c9.99-17.88,27.8-24.68,44.33-17.11
		c16.24,7.44,23.45,26.34,14.98,44.81c-17.07,37.25-35.33,73.97-53.05,110.92c-3.09,6.44-5.95,12.98-11.11,24.29
		c11.52-6.76,18.63-10.93,25.74-15.1c157.95-92.59,321.62-103.94,491.09-34.85c17.45,7.11,28.86,18.14,26.22,38
		c-3.01,22.62-24.45,31.43-49.05,24.08c-43.99-13.14-87.83-29.12-132.94-35.8c-236.89-35.12-472.47,136.21-516.05,372.9
		c-48.93,265.72,120.94,508.43,388.03,554.4c242.56,41.75,489.02-131.47,531.26-374.7c29.9-172.16-20.6-318.14-147.66-437.84
		c-2.67-2.51-5.51-4.85-8.05-7.49c-14.51-15.04-15.85-33.37-3.51-47.06c12.64-14.03,32.53-16.72,46.73-1.4
		c35.71,38.54,69.39,78.98,103.56,118.92c5.49,6.42,9.38,14.22,16.81,25.71c0.51-8.8,0.94-12.76,0.94-16.71
		c0.03-128.29,0.57-256.58-0.11-384.86c-0.96-179.68-148.44-322.87-327.64-314.85C958.84,892.67,869,949.93,810.81,1054.1
		c-17.82,31.9-32.24,65.69-48.4,98.52c-12.04,24.46-29.98,32.97-48.64,23.45c-18.2-9.29-23.22-28.12-10.86-51.34
		c28.13-52.86,54.94-106.68,87.04-157.08c25.79-40.48,64.39-70.2,106.56-93.34c16.06-8.81,25.64-20.55,32.27-36.51
		c26.18-63,66.75-113.12,128.86-144.17c165.48-82.73,362.93,37.53,365.29,222.6c0.05,3.66,0.12,7.33,0.01,11
		c-1.46,50.5-1.77,100.03,24.77,146.73c11.9,20.95,14.24,47.34,21.37,72.87c39.02,0,78.96,0,114.61,0
		c16.57-43.08,32.81-84.4,48.16-126.05c2.66-7.22,1.73-15.82,2.2-23.8c2.68-45.92-0.55-93.11,9.08-137.52
		c22.77-105.07,108.1-176.54,218.26-190.94c96.4-12.6,200.77,40.4,246.89,130.89c20.82,40.86,45.75,72.59,85.41,97.57
		c55.46,34.94,93.37,87.79,121.88,147.12c85.91,178.79,171.62,357.69,258.91,535.81c27.12,55.34,54.24,110.01,67.76,170.78
		c65.85,296.11-135.1,592.86-434.38,640.49c-297.74,47.38-570.19-151.46-616.46-450.17c-3.23-20.84-4.38-42-6.61-64.12
		c-37.64,0-74.62,0-107.52,0c-11.86,54.38-18.57,108.59-35.62,159.33c-76.18,226.72-298.16,376.68-530.99,362.13
		c-247.59-15.47-448.55-188.55-497.95-429.04c-3.96-19.26-6.87-38.73-10.26-58.1C402.43,1880.41,402.43,1849.62,402.43,1818.83z
		 M2588.64,1863.75c-0.19-258.41-210.2-467.73-469.05-467.54c-258.5,0.2-468.25,210.34-467.9,468.76
		c0.36,258.06,211.16,468.43,469.14,468.16C2378.75,2332.86,2588.83,2122.06,2588.64,1863.75z M1652.11,1605.46
		c83.24-137.75,196.51-226.18,347.69-261.16c150.59-34.84,291.16-6.63,421.46,78.07c0-4.15,0.48-5.79-0.07-6.93
		c-59.25-122.57-115.58-246.67-178.73-367.21c-65.13-124.33-210.4-184.97-348.4-152.93c-132.94,30.86-237.48,151.5-241.13,287.52
		C1649.21,1321.24,1652.11,1459.85,1652.11,1605.46z M1584.26,1808.77c0-198.77,0-395.96,0-593.13c-38.35,0-75.14,0-111.9,0
		c0,198.63,0,395.33,0,593.13C1509.79,1808.77,1546.12,1808.77,1584.26,1808.77z M1354.51,927.4
		c11.51-77.91-49.82-163.05-132.97-186.92c-83.22-23.89-180.63,15.93-212.14,88.25C1140.9,804.45,1255.58,837.91,1354.51,927.4z
		 M2046.68,827.45c-28.33-72.11-134.69-113.3-219.15-84.87c-79.39,26.73-142.5,120.18-123.82,183.34
		C1820.39,832.42,1873.42,817.19,2046.68,827.45z"/>
	<path d="M936.37,1466.39c220.35-0.12,398.61,177.92,398.63,398.13c0.02,219.58-179.3,398.65-398.92,398.36
		c-218.6-0.28-397.16-178.89-397.44-397.56C538.35,1644.87,716.17,1466.51,936.37,1466.39z M936.91,1532.19
		c-183.16-0.08-331.91,147.77-332.41,330.39c-0.5,184.16,147.83,333.98,331.04,334.37c183.77,0.4,333.32-148.4,333.59-331.91
		C1269.41,1681.04,1120.92,1532.27,936.91,1532.19z"/>
	<path fill="#FFFFFF" d="M2518.39,1838.12c-6.37-137.52-80.7-260.34-230.68-334.75c-32.1-15.92-50.65-12.16-60.18,9.35
		c-9.09,20.53,0.33,35.29,31.92,49.99c135.43,63.01,211.35,203.95,189.25,351.31c-19.96,133.09-119.98,242.58-249.98,273.67
		c-133.99,32.04-272.86-20.84-351.64-133.89c-77.52-111.24-80.17-259.5-4.18-372.08c63.07-93.43,151.89-143.79,265.13-149.15
		c16.82-0.8,32.42-2.56,40.81-19.8c11.69-24.03-5.64-46.13-36.18-46.25c-232.64-0.94-417.67,214.02-387.05,449.67
		c26.86,206.75,211.72,359.64,418.47,346.1C2354.01,2248.53,2518.25,2074.82,2518.39,1838.12z"/>
	<path fill="#FFFFFF" d="M1652.11,1605.46c0-145.6-2.9-284.21,0.82-422.64c3.65-136.02,108.2-256.66,241.13-287.52
		c138-32.04,283.26,28.61,348.4,152.93c63.15,120.53,119.48,244.63,178.73,367.21c0.55,1.14,0.07,2.78,0.07,6.93
		c-130.3-84.69-270.87-112.91-421.46-78.07C1848.62,1379.27,1735.34,1467.7,1652.11,1605.46z"/>
	<path d="M2518.39,1838.12c-0.14,236.7-164.38,410.41-374.3,424.16c-206.75,13.54-391.61-139.34-418.47-346.1
		c-30.62-235.65,154.41-450.62,387.05-449.67c30.54,0.12,47.87,22.22,36.18,46.25c-8.39,17.24-23.99,19.01-40.81,19.8
		c-113.24,5.37-202.06,55.73-265.13,149.15c-75.99,112.57-73.34,260.84,4.18,372.08c78.77,113.04,217.65,165.92,351.64,133.89
		c130-31.08,230.02-140.58,249.98-273.67c22.1-147.36-53.82-288.29-189.25-351.31c-31.58-14.69-41.01-29.46-31.92-49.99
		c9.53-21.51,28.08-25.28,60.18-9.35C2437.69,1577.79,2512.01,1700.6,2518.39,1838.12z"/>
</g>
</svg>
