<svg id="Camada_1" data-name="Camada 1" xmlns="http://www.w3.org/2000/svg" viewBox="0 0 1073.16 1046.66"><defs><style>.cls-1,.cls-2{fill:#221e1b;}.cls-1{fill-rule:evenodd;}</style></defs><path class="cls-1" d="M540.3,16.67C244,16.67,3.72,256.89,3.72,553.25c0,237.07,153.75,438.2,367,509.16,26.81,5,36.66-11.65,36.66-25.82,0-12.79-.5-55.06-.73-99.9-149.28,32.46-180.78-63.31-180.78-63.31-24.4-62-59.57-78.51-59.57-78.51-48.69-33.3,3.67-32.62,3.67-32.62,53.87,3.78,82.25,55.3,82.25,55.3,47.85,82,125.53,58.31,156.15,44.6,4.81-34.67,18.71-58.35,34.06-71.75C323.2,776.84,197.91,730.82,197.91,525.22c0-58.58,21-106.45,55.29-144-5.57-13.51-23.94-68.09,5.2-142,0,0,45.06-14.41,147.59,55,42.81-11.89,88.71-17.85,134.31-18.06,45.6.21,91.54,6.17,134.42,18.06,102.42-69.42,147.41-55,147.41-55,29.21,73.91,10.84,128.49,5.27,142,34.4,37.58,55.22,85.45,55.22,144,0,206.1-125.53,251.47-245,264.75C656.85,806.63,674,839.28,674,889.34c0,71.79-.62,129.58-.62,147.25,0,14.29,9.66,31,36.86,25.75,213.09-71,366.64-272.1,366.64-509.09C1076.88,256.89,836.64,16.67,540.3,16.67Z" transform="translate(-3.72 -16.67)"/><path class="cls-2" d="M207,787.08c-1.18,2.67-5.38,3.47-9.2,1.64s-6.07-5.39-4.81-8.06,5.35-3.51,9.24-1.68,6.12,5.42,4.77,8.1Zm-6.6-4.9" transform="translate(-3.72 -16.67)"/><path class="cls-2" d="M228.69,811.32c-2.56,2.37-7.57,1.27-11-2.48s-4.17-8.75-1.57-11.15,7.49-1.26,11,2.48,4.2,8.75,1.53,11.15Zm-5.12-5.49" transform="translate(-3.72 -16.67)"/><path class="cls-2" d="M249.84,842.22c-3.29,2.29-8.66.15-12-4.62s-3.29-10.5.08-12.79,8.62-.23,12,4.5,3.28,10.58-.08,12.91Zm0,0" transform="translate(-3.72 -16.67)"/><path class="cls-2" d="M278.83,872.08c-2.95,3.25-9.21,2.37-13.79-2.06s-6-10.46-3.06-13.71,9.29-2.33,13.9,2.06,6.08,10.5,2.95,13.71Zm0,0" transform="translate(-3.72 -16.67)"/><path class="cls-2" d="M318.81,889.42c-1.3,4.2-7.33,6.11-13.41,4.32s-10-6.76-8.81-11,7.32-6.23,13.44-4.32,10,6.72,8.78,11Zm0,0" transform="translate(-3.72 -16.67)"/><path class="cls-2" d="M362.73,892.63c.14,4.42-5,8.09-11.39,8.17s-11.61-3.43-11.68-7.79,5-8.1,11.46-8.21,11.61,3.44,11.61,7.83Zm0,0" transform="translate(-3.72 -16.67)"/><path class="cls-2" d="M403.59,885.68c.76,4.31-3.67,8.74-10,9.92s-12-1.52-12.79-5.8,3.74-8.86,10-10,12,1.5,12.83,5.89Zm0,0" transform="translate(-3.72 -16.67)"/></svg>